<mxfile host="app.diagrams.net" modified="2024-05-13T12:29:31.769Z" agent="Mozilla/5.0 (Windows NT 10.0; Win64; x64; rv:125.0) Gecko/20100101 Firefox/125.0" etag="pNBcP05KE8iQyD4d0VVf" version="24.3.1" type="device">
  <diagram id="C5RBs43oDa-KdzZeNtuy" name="Page-1">
    <mxGraphModel dx="1290" dy="1632" grid="1" gridSize="10" guides="1" tooltips="1" connect="1" arrows="1" fold="1" page="1" pageScale="1" pageWidth="827" pageHeight="1169" math="0" shadow="0">
      <root>
        <mxCell id="WIyWlLk6GJQsqaUBKTNV-0" />
        <mxCell id="WIyWlLk6GJQsqaUBKTNV-1" parent="WIyWlLk6GJQsqaUBKTNV-0" />
        <mxCell id="SFj4wGZl35TIfV8WqIPP-49" value="Sentence" style="rounded=1;whiteSpace=wrap;html=1;shadow=1;comic=0;labelBackgroundColor=none;strokeWidth=2;fontFamily=Verdana;fontSize=12;align=center;" parent="WIyWlLk6GJQsqaUBKTNV-1" vertex="1">
          <mxGeometry x="320" y="-90" width="120" height="60" as="geometry" />
        </mxCell>
        <mxCell id="SFj4wGZl35TIfV8WqIPP-62" style="edgeStyle=orthogonalEdgeStyle;rounded=0;orthogonalLoop=1;jettySize=auto;html=1;exitX=0.5;exitY=0.5;exitDx=0;exitDy=0;exitPerimeter=0;entryX=0;entryY=0.5;entryDx=0;entryDy=0;" parent="WIyWlLk6GJQsqaUBKTNV-1" source="SFj4wGZl35TIfV8WqIPP-54" target="SFj4wGZl35TIfV8WqIPP-61" edge="1">
          <mxGeometry relative="1" as="geometry">
            <Array as="points">
              <mxPoint x="180" y="-60" />
              <mxPoint x="180" y="-170" />
              <mxPoint x="320" y="-170" />
            </Array>
          </mxGeometry>
        </mxCell>
        <mxCell id="SFj4wGZl35TIfV8WqIPP-64" style="edgeStyle=orthogonalEdgeStyle;rounded=0;orthogonalLoop=1;jettySize=auto;html=1;exitX=0.5;exitY=0.5;exitDx=0;exitDy=0;exitPerimeter=0;curved=1;" parent="WIyWlLk6GJQsqaUBKTNV-1" source="SFj4wGZl35TIfV8WqIPP-54" target="SFj4wGZl35TIfV8WqIPP-49" edge="1">
          <mxGeometry relative="1" as="geometry" />
        </mxCell>
        <mxCell id="NfrvqglRZPebFO9s_ejK-3" style="edgeStyle=orthogonalEdgeStyle;rounded=0;orthogonalLoop=1;jettySize=auto;html=1;exitX=0.5;exitY=0.5;exitDx=0;exitDy=0;exitPerimeter=0;entryX=0;entryY=0.5;entryDx=0;entryDy=0;" edge="1" parent="WIyWlLk6GJQsqaUBKTNV-1" source="SFj4wGZl35TIfV8WqIPP-54" target="NfrvqglRZPebFO9s_ejK-1">
          <mxGeometry relative="1" as="geometry">
            <Array as="points">
              <mxPoint x="180" y="-60" />
              <mxPoint x="180" y="-259" />
            </Array>
          </mxGeometry>
        </mxCell>
        <mxCell id="SFj4wGZl35TIfV8WqIPP-54" value="Actor" style="shape=umlActor;verticalLabelPosition=bottom;verticalAlign=top;html=1;outlineConnect=0;" parent="WIyWlLk6GJQsqaUBKTNV-1" vertex="1">
          <mxGeometry x="100" y="-90" width="30" height="60" as="geometry" />
        </mxCell>
        <mxCell id="SFj4wGZl35TIfV8WqIPP-61" value="&lt;div&gt;JWTAthenticator&lt;/div&gt;" style="rounded=1;whiteSpace=wrap;html=1;shadow=1;comic=0;labelBackgroundColor=none;strokeWidth=2;fontFamily=Verdana;fontSize=12;align=center;" parent="WIyWlLk6GJQsqaUBKTNV-1" vertex="1">
          <mxGeometry x="320" y="-195" width="120" height="60" as="geometry" />
        </mxCell>
        <mxCell id="SFj4wGZl35TIfV8WqIPP-77" value="" style="edgeStyle=orthogonalEdgeStyle;rounded=0;orthogonalLoop=1;jettySize=auto;html=1;exitX=1;exitY=0.5;exitDx=0;exitDy=0;entryX=0;entryY=0.5;entryDx=0;entryDy=0;curved=1;" parent="WIyWlLk6GJQsqaUBKTNV-1" source="SFj4wGZl35TIfV8WqIPP-49" target="SFj4wGZl35TIfV8WqIPP-51" edge="1">
          <mxGeometry relative="1" as="geometry">
            <mxPoint x="360" y="-60" as="sourcePoint" />
            <mxPoint x="610" y="70" as="targetPoint" />
          </mxGeometry>
        </mxCell>
        <mxCell id="7XpnBDZYxzpvHIefM5FI-3" style="edgeStyle=orthogonalEdgeStyle;rounded=0;orthogonalLoop=1;jettySize=auto;html=1;exitX=0.5;exitY=1;exitDx=0;exitDy=0;entryX=0.5;entryY=0.5;entryDx=0;entryDy=0;entryPerimeter=0;curved=1;" parent="WIyWlLk6GJQsqaUBKTNV-1" source="SFj4wGZl35TIfV8WqIPP-51" target="SFj4wGZl35TIfV8WqIPP-54" edge="1">
          <mxGeometry relative="1" as="geometry">
            <mxPoint x="230" y="70" as="targetPoint" />
            <Array as="points">
              <mxPoint x="630" y="70" />
              <mxPoint x="115" y="70" />
            </Array>
          </mxGeometry>
        </mxCell>
        <mxCell id="SFj4wGZl35TIfV8WqIPP-51" value="Module" style="rounded=1;whiteSpace=wrap;html=1;shadow=1;comic=0;labelBackgroundColor=none;strokeWidth=2;fontFamily=Verdana;fontSize=12;align=center;" parent="WIyWlLk6GJQsqaUBKTNV-1" vertex="1">
          <mxGeometry x="570" y="-90" width="120" height="60" as="geometry" />
        </mxCell>
        <mxCell id="SFj4wGZl35TIfV8WqIPP-80" value="Query" style="text;strokeColor=none;align=center;fillColor=none;html=1;verticalAlign=middle;whiteSpace=wrap;rounded=0;" parent="WIyWlLk6GJQsqaUBKTNV-1" vertex="1">
          <mxGeometry x="180" y="-200" width="140" height="30" as="geometry" />
        </mxCell>
        <mxCell id="UdiUtTEtpS5APtXnJRve-6" value="Querry" style="text;html=1;strokeColor=none;fillColor=none;align=center;verticalAlign=middle;whiteSpace=wrap;rounded=0;rotation=0;" parent="WIyWlLk6GJQsqaUBKTNV-1" vertex="1">
          <mxGeometry x="470" y="-100" width="120" height="40" as="geometry" />
        </mxCell>
        <mxCell id="9yIlo47GbLetwC-M8x10-2" value="&lt;div&gt;Command&lt;/div&gt;&lt;div&gt;and&lt;/div&gt;&lt;div&gt;Query&lt;br&gt;&lt;/div&gt;" style="text;html=1;strokeColor=none;fillColor=none;align=center;verticalAlign=middle;whiteSpace=wrap;rounded=0;rotation=0;" parent="WIyWlLk6GJQsqaUBKTNV-1" vertex="1">
          <mxGeometry x="335" y="20" width="90" height="40" as="geometry" />
        </mxCell>
        <mxCell id="NfrvqglRZPebFO9s_ejK-1" value="&lt;div&gt;&lt;div&gt;LoginAndRegister&lt;/div&gt;&lt;/div&gt;" style="rounded=1;whiteSpace=wrap;html=1;shadow=1;comic=0;labelBackgroundColor=none;strokeWidth=2;fontFamily=Verdana;fontSize=12;align=center;" vertex="1" parent="WIyWlLk6GJQsqaUBKTNV-1">
          <mxGeometry x="321" y="-289" width="120" height="60" as="geometry" />
        </mxCell>
        <mxCell id="NfrvqglRZPebFO9s_ejK-4" value="Command" style="text;strokeColor=none;align=center;fillColor=none;html=1;verticalAlign=middle;whiteSpace=wrap;rounded=0;" vertex="1" parent="WIyWlLk6GJQsqaUBKTNV-1">
          <mxGeometry x="180" y="-91" width="140" height="30" as="geometry" />
        </mxCell>
        <mxCell id="SFj4wGZl35TIfV8WqIPP-86" value="Command" style="text;strokeColor=none;align=center;fillColor=none;html=1;verticalAlign=middle;whiteSpace=wrap;rounded=0;" parent="WIyWlLk6GJQsqaUBKTNV-1" vertex="1">
          <mxGeometry x="180" y="-288" width="140" height="30" as="geometry" />
        </mxCell>
      </root>
    </mxGraphModel>
  </diagram>
</mxfile>
